<?xml version="1.0" encoding="utf-8"?>
<!-- Generator: Adobe Illustrator 19.0.0, SVG Export Plug-In . SVG Version: 6.00 Build 0)  -->
<svg version="1.1" id="Layer_1" xmlns="http://www.w3.org/2000/svg" xmlns:xlink="http://www.w3.org/1999/xlink" x="0px" y="0px"
	 viewBox="0 0 500 500" style="enable-background:new 0 0 500 500;" xml:space="preserve">
<g id="XMLID_1_">
	<path id="XMLID_3_" d="M80.7,270.5H70v-0.8c0.7-0.1,1.5-0.4,2.3-1v-69.4c-0.9-0.6-1.6-0.9-2.3-0.9v-0.8h17.8l1.9,22.8h-0.8
		l-1.8-5.9c-0.8-2.5-1.6-4.9-2.6-7.3c-1-2.4-1.7-3.8-2.3-4.3c-0.5-0.5-1.2-0.7-2-0.7h-1.7v29.2h1.4c1,0,1.7-0.3,2.2-0.9
		c0.5-0.6,1-2,1.8-4.4l1.6-5.1H86v27.3h-0.8l-2.1-7c-0.8-2.6-1.3-4.1-1.6-4.5c-0.3-0.5-0.9-0.7-1.7-0.7h-1.4v32.5
		c0.4,0.5,1.2,0.8,2.3,1V270.5z"/>
	<path id="XMLID_4_" d="M107.6,199.4v69.4c0.6,0.5,1.3,0.9,2.3,1v0.8H99.2v-0.8c0.9-0.1,1.6-0.4,2.2-1v-69.4
		c-0.7-0.6-1.4-0.9-2.2-0.9v-0.8h10.6v0.8C109,198.5,108.2,198.8,107.6,199.4z"/>
	<path id="XMLID_5_" d="M137.9,253.2l-1.9-53.8c-0.7-0.6-1.5-0.9-2.2-0.9v-0.8h9.7v0.8c-1.1,0.1-1.9,0.4-2.3,0.9v71.1h-4.6
		l-6.4-31.9c-1.2-5.9-2.1-11.1-2.7-15.6l-2.8-21.8l2.4,67.5c0.7,0.6,1.5,1,2.3,1v0.8h-9.7v-0.8c0.8,0,1.5-0.4,2.3-1v-69.4
		c-0.7-0.6-1.5-0.9-2.3-0.9v-0.8h8.2l5,23.6c0.9,4.4,1.8,9.2,2.6,14.5L137.9,253.2z"/>
	<path id="XMLID_8_" d="M165.9,197.2l5.4,71.6c0.4,0.6,1,0.9,1.7,1v0.8h-9.4v-0.8c0.8-0.2,1.3-0.5,1.4-1l-0.5-14.7h-4.7l-0.8,14.7
		c0.5,0.5,1,0.9,1.5,1v0.8h-7.7v-0.8c0.6-0.1,1.1-0.4,1.4-1l5.5-71.6H165.9z M164.2,249.4l-2.2-47.7l-2.3,47.7H164.2z"/>
	<path id="XMLID_9_" d="M192.8,197.7v0.8c-0.8,0-1.5,0.3-2.2,0.9v66.4h2c2.5,0,5-4.7,7.3-14.2l1.2-5.2h0.6l-1.3,24h-18.3v-0.8
		c0.9-0.1,1.7-0.5,2.3-1v-69.4c-0.7-0.6-1.5-0.9-2.3-0.9v-0.8H192.8z"/>
	<path id="XMLID_10_" d="M238.9,270h-10.7v-0.8c0.7-0.1,1.5-0.4,2.3-1v-68.9c-0.9-0.6-1.6-0.9-2.3-0.9v-0.8h17.8l1.9,22.6h-0.8
		l-1.8-5.8c-0.8-2.5-1.6-4.9-2.6-7.2s-1.7-3.8-2.3-4.2c-0.5-0.5-1.2-0.7-2-0.7h-1.7v29h1.4c1,0,1.7-0.3,2.2-0.9c0.5-0.6,1-2,1.8-4.3
		l1.6-5.1h0.8v27.1h-0.8l-2.1-7c-0.8-2.5-1.3-4.1-1.6-4.5c-0.3-0.5-0.9-0.7-1.7-0.7h-1.4v32.2c0.4,0.5,1.2,0.8,2.3,1V270z"/>
	<path id="XMLID_13_" d="M268.7,197.2l5.4,71.1c0.4,0.6,1,0.9,1.7,1v0.8h-9.4v-0.8c0.8-0.2,1.3-0.5,1.4-1l-0.5-14.5h-4.7l-0.8,14.5
		c0.5,0.5,1,0.9,1.5,1v0.8h-7.7v-0.8c0.6-0.1,1.1-0.4,1.4-1l5.5-71.1H268.7z M267,249.1l-2.2-47.3l-2.3,47.3H267z"/>
	<path id="XMLID_14_" d="M302,252.8l-1.9-53.4c-0.7-0.6-1.5-0.9-2.2-0.9v-0.8h9.7v0.8c-1.1,0.1-1.9,0.4-2.3,0.9V270h-4.6l-6.4-31.6
		c-1.2-5.8-2.1-11-2.7-15.5l-2.8-21.6l2.4,67c0.7,0.6,1.5,0.9,2.3,1v0.8h-9.7v-0.8c0.8,0,1.5-0.4,2.3-1v-68.9
		c-0.7-0.6-1.5-0.9-2.3-0.9v-0.8h8.2l5,23.4c0.9,4.3,1.8,9.1,2.6,14.4L302,252.8z"/>
	<path id="XMLID_15_" d="M324.5,268.3v-66.4h-1.2c-0.4,0-0.8,0.1-1.1,0.4c-0.3,0.3-0.8,1.1-1.4,2.6c-0.6,1.5-1.3,3.6-2,6.6
		c-0.7,2.9-1.5,6.1-2.1,9.5h-0.8l1.2-23.2h21.1l1.4,23.2h-0.8c-2-8.8-3.5-14.2-4.4-16.1c-0.9-1.9-1.8-2.9-2.7-2.9h-1v66.4
		c0.7,0.5,1.4,0.9,2.3,1v0.8h-10.7v-0.8C323.1,269.1,323.9,268.8,324.5,268.3z"/>
	<path id="XMLID_18_" d="M360.5,197.2l5.4,71.1c0.4,0.6,1,0.9,1.7,1v0.8h-9.4v-0.8c0.8-0.2,1.3-0.5,1.4-1l-0.5-14.5h-4.7l-0.8,14.5
		c0.5,0.5,1,0.9,1.5,1v0.8h-7.7v-0.8c0.6-0.1,1.1-0.4,1.4-1l5.5-71.1H360.5z M358.8,249.1l-2.2-47.3l-2.3,47.3H358.8z"/>
	<path id="XMLID_19_" d="M375.9,253.1l6.6-7.7l0.6,0.5c-0.7,1.8-1,5-1,9.4c0,4.6,0.2,7.5,0.5,8.7c0.3,1.2,1.1,1.9,2.2,1.9
		c2.2,0,3.3-3.4,3.3-10.3c0-3.9-0.3-7.2-1-9.8c-0.7-2.7-2-5.7-3.9-9.1c-2.1-3.8-3.5-6.5-4.3-8.2c-0.8-1.7-1.5-4-2.1-6.9
		c-0.6-2.9-1-5.8-1-8.9c0-10.3,3-15.4,8.9-15.4c6,0,9.1,5.7,9.1,17.1v2.9l-6.7,5.2l-0.4-0.5c0.7-2.3,1-4.8,1-7.6c0-4-0.1-7-0.4-9.1
		c-0.3-2.1-1.1-3.1-2.3-3.1c-2,0-2.9,3-2.9,9.1c0,5.4,0.4,9.2,1.1,11.5c0.7,2.3,2.2,5.4,4.4,9.3c2.9,5,4.8,9.1,5.5,12.1
		c0.8,3.1,1.2,6.5,1.2,10.4c0,10.7-3.2,16.1-9.6,16.1c-5.9,0-8.9-4.8-8.9-14.3V253.1z"/>
	<path id="XMLID_20_" d="M416.7,235.9v32.4c0.7,0.5,1.5,0.9,2.3,1v0.8h-10.7v-0.8c1.2-0.2,1.9-0.5,2.2-1v-32.1l-6.2-36.8
		c-0.1-0.5-0.8-0.8-2.3-0.9v-0.8h10.6v0.8c-1.1,0.1-1.8,0.4-2.2,0.9l4,32.9l3.1-32.9c-0.8-0.6-1.6-0.9-2.3-0.9v-0.8h9.6v0.8
		c-1.1,0.1-1.9,0.4-2.3,0.9L416.7,235.9z"/>
	<rect id="XMLID_21_" x="67.5" y="277.2" width="365" height="2.8"/>
	<path id="XMLID_25_" d="M426.8,263.8c0.6,0,1.1,0.1,1.7,0.4c0.5,0.3,1,0.7,1.3,1.2c0.3,0.5,0.4,1.1,0.4,1.7c0,0.6-0.1,1.1-0.4,1.7
		c-0.3,0.5-0.7,0.9-1.2,1.2c-0.5,0.3-1.1,0.4-1.7,0.4c-0.6,0-1.1-0.1-1.7-0.4c-0.5-0.3-0.9-0.7-1.2-1.2c-0.3-0.5-0.4-1.1-0.4-1.7
		c0-0.6,0.2-1.1,0.5-1.7c0.3-0.5,0.7-1,1.3-1.2C425.7,264,426.3,263.8,426.8,263.8z M426.8,264.4c-0.5,0-0.9,0.1-1.4,0.4
		c-0.4,0.2-0.8,0.6-1,1c-0.3,0.4-0.4,0.9-0.4,1.4c0,0.5,0.1,0.9,0.4,1.4c0.2,0.4,0.6,0.8,1,1c0.4,0.2,0.9,0.4,1.4,0.4
		c0.5,0,0.9-0.1,1.4-0.4c0.4-0.2,0.8-0.6,1-1c0.2-0.4,0.4-0.9,0.4-1.4c0-0.5-0.1-1-0.4-1.4c-0.3-0.4-0.6-0.8-1-1
		C427.8,264.5,427.3,264.4,426.8,264.4L426.8,264.4z M427.9,267.7l0.5,0.2c-0.1,0.4-0.3,0.7-0.6,0.9c-0.3,0.2-0.6,0.3-1.1,0.3
		c-0.5,0-0.9-0.2-1.3-0.5c-0.3-0.3-0.5-0.8-0.5-1.4c0-0.4,0.1-0.7,0.2-1c0.1-0.3,0.4-0.5,0.6-0.7c0.3-0.1,0.6-0.2,0.9-0.2
		c0.4,0,0.7,0.1,1,0.3c0.3,0.2,0.4,0.4,0.5,0.8l-0.5,0.1c-0.1-0.2-0.2-0.4-0.4-0.5c-0.2-0.1-0.4-0.2-0.6-0.2c-0.3,0-0.6,0.1-0.8,0.4
		c-0.2,0.2-0.3,0.6-0.3,1c0,0.5,0.1,0.8,0.3,1c0.2,0.2,0.5,0.3,0.8,0.3c0.3,0,0.5-0.1,0.7-0.2C427.7,268.2,427.9,268,427.9,267.7
		L427.9,267.7z"/>
	<path id="XMLID_26_" d="M296.7,289.1c-0.9,0.1-3.1,0.4-6.5,1c-0.8,0.1-1.3,0.3-1.5,0.4c-0.1,0.2-0.2,0.3-0.4,0.3
		c-0.2,0-0.5-0.2-0.9-0.7c-0.4-0.4-0.7-0.8-0.7-1.3c0-0.4,0.2-0.5,0.6-0.2c0.1,0.3,0.5,0.4,1,0.4c0.7,0,3.4-0.3,8.1-0.9
		c0.3,0,0.5-0.2,0.7-0.6c0.5,0.3,1,0.7,1.5,1.1c0.3,0.2,0.4,0.5,0.4,0.7c0,0.3-0.2,0.5-0.6,0.5c-0.2,0-0.4,0.1-0.4,0.2
		c-1.8,5.2-5.1,8.7-9.9,10.7c-0.4,0-0.5-0.2-0.3-0.6c4.6-2.3,7.6-5.9,9-10.8C296.8,289.2,296.8,289.1,296.7,289.1z"/>
	<path id="XMLID_27_" d="M299.6,302.2c2.7-2,4-4.5,3.8-7.6c-0.6-0.4-0.6-0.7-0.1-0.9c1.1-0.1,1.6,0.2,1.4,0.7
		c0.9-0.8,1.7-1.6,2.4-2.4c0.3-0.2,0.3-0.3,0.1-0.2c-4.1,0.5-6.3,1-6.6,1.2c-0.2,0.2-0.4,0.3-0.6,0.3c-0.1,0-0.4-0.1-0.7-0.4
		c-0.4-0.3-0.6-0.7-0.7-1.2c0-0.5,0.2-0.6,0.5-0.4c0.3,0.3,0.6,0.4,1.1,0.4c1.7-0.2,4.1-0.5,7.1-0.8c0.2,0,0.4-0.2,0.7-0.4
		c0.4,0.3,0.8,0.7,1,1c0.2,0.3,0.3,0.5,0.3,0.7c0,0.2-0.2,0.3-0.6,0.3c-0.2,0-0.5,0.1-0.8,0.4c-0.6,0.5-1.7,1.3-3.4,2.3
		c-0.3,3.6-1.9,6.1-4.9,7.7C299.5,302.8,299.4,302.6,299.6,302.2z"/>
	<path id="XMLID_28_" d="M316.8,292.8c0,2.8,0,5.6,0,8.5c0,0.6-0.1,0.9-0.4,0.9c-0.2,0-0.4-0.2-0.7-0.6c-0.3-0.4-0.3-0.8-0.2-1.2
		c0.1-0.5,0.2-0.9,0.2-1.3c0-2.2,0-4.4,0-6.4c-2.4,2.2-4.6,3.8-6.7,4.7c-0.5,0-0.6-0.2-0.3-0.7c4.4-2.8,7.7-5.8,9.9-9
		c0.1-0.2,0.2-0.4,0.2-0.6c0-0.1-0.2-0.2-0.5-0.4c-0.3-0.3-0.3-0.5,0.2-0.6c0.8,0.1,1.3,0.4,1.7,1c0.4,0.4,0.6,0.7,0.6,1
		c0,0.3-0.2,0.5-0.6,0.4c-0.2,0-0.3,0.1-0.5,0.2c-0.8,1.1-1.8,2.1-2.9,3C317.6,292.2,317.6,292.5,316.8,292.8z"/>
	<path id="XMLID_29_" d="M328.4,291.6c0.2,4.8-1.4,8.2-4.8,10.2c-0.3,0-0.4-0.2-0.3-0.5c2.7-2.2,4-5.4,3.8-9.5
		c-3.2,0.3-4.9,0.6-5,0.9c-0.1,0.2-0.3,0.3-0.5,0.3c-0.2,0-0.4-0.1-0.5-0.3c-0.8-0.8-1.1-1.4-1.1-2c0.1-0.4,0.3-0.5,0.6-0.1
		c0.2,0.4,0.5,0.7,0.9,0.7c1,0,2.9-0.1,5.6-0.4c0-1.1,0-2.2,0-3.1c0-0.5-0.3-0.8-1-0.9c-0.2-0.3-0.2-0.5,0-0.6
		c0.4-0.2,0.9-0.1,1.5,0.1c0.8,0.3,1.2,0.7,1.2,1.1c0,0.3-0.1,0.4-0.3,0.4c-0.1,0-0.1,0.2-0.1,0.6c0,0.8,0,1.5,0,2.3
		c2.6,0,4-0.3,4.3-0.8c0.4,0.1,0.9,0.3,1.2,0.6c0.5,0.3,0.8,0.7,0.8,1.1c0,0.3-0.3,0.4-0.8,0.3C332.4,291.5,330.6,291.5,328.4,291.6
		z"/>
	<path id="XMLID_32_" d="M340.6,299.2c-0.5-0.5-0.7-0.9-0.7-1c0-0.2,0.2-0.3,0.5-0.4c0-0.6,0-3.2,0-7.9c0-0.4-0.1-0.7-0.2-0.9
		c-0.1-0.1-0.3-0.2-0.7-0.3c-0.3-0.3-0.3-0.5,0-0.7c0.9,0,1.6,0.2,2.2,0.6c0.3,0.2,0.5,0.5,0.5,0.7c0,0.3-0.2,0.5-0.5,0.7
		c0,2.4,0,5,0,7.6c2.4-1.3,4.6-3.1,6.5-5.5c0.4-0.1,0.6,0,0.5,0.5c-1.3,1.9-3,3.8-5.3,5.4c-1.1,0.7-1.7,1.1-1.7,1.3
		c0,0.4-0.1,0.6-0.4,0.6C341.2,299.7,340.9,299.5,340.6,299.2z M338.3,291.7c-0.8,3.7-2.5,6.7-5,9.1c-0.4,0.1-0.5-0.1-0.4-0.5
		c2.1-2.4,3.5-5.3,4.1-8.7c0-0.5,0-0.8,0-0.8c-0.1-0.1-0.3-0.2-0.5-0.3c-0.3-0.2-0.3-0.4,0-0.7c0.8-0.1,1.4,0.1,2,0.6
		c0.3,0.3,0.5,0.5,0.5,0.8C338.9,291.6,338.7,291.7,338.3,291.7L338.3,291.7z"/>
	<path id="XMLID_33_" d="M357.9,289.1c-0.9,0.1-3.1,0.4-6.5,1c-0.8,0.1-1.3,0.3-1.5,0.4c-0.1,0.2-0.2,0.3-0.4,0.3
		c-0.2,0-0.5-0.2-0.9-0.7c-0.4-0.4-0.7-0.8-0.7-1.3c0-0.4,0.2-0.5,0.6-0.2c0.1,0.3,0.5,0.4,1,0.4c0.7,0,3.4-0.3,8.1-0.9
		c0.3,0,0.5-0.2,0.7-0.6c0.5,0.3,1,0.7,1.5,1.1c0.3,0.2,0.4,0.5,0.4,0.7c0,0.3-0.2,0.5-0.6,0.5c-0.2,0-0.4,0.1-0.4,0.2
		c-1.8,5.2-5.1,8.7-9.9,10.7c-0.4,0-0.5-0.2-0.3-0.6c4.6-2.3,7.6-5.9,9-10.8C358.1,289.2,358,289.1,357.9,289.1z"/>
	<path id="XMLID_34_" d="M362.5,302.2c2.7-2,4-4.5,3.8-7.6c-0.6-0.4-0.6-0.7-0.1-0.9c1.1-0.1,1.6,0.2,1.4,0.7
		c0.9-0.8,1.7-1.6,2.4-2.4c0.3-0.2,0.3-0.3,0.1-0.2c-4.1,0.5-6.3,1-6.6,1.2c-0.2,0.2-0.4,0.3-0.6,0.3c-0.1,0-0.4-0.1-0.7-0.4
		c-0.4-0.3-0.6-0.7-0.7-1.2c0-0.5,0.2-0.6,0.5-0.4c0.3,0.3,0.6,0.4,1.1,0.4c1.7-0.2,4.1-0.5,7.1-0.8c0.2,0,0.4-0.2,0.7-0.4
		c0.4,0.3,0.8,0.7,1,1c0.2,0.3,0.3,0.5,0.3,0.7c0,0.2-0.2,0.3-0.6,0.3c-0.2,0-0.5,0.1-0.8,0.4c-0.6,0.5-1.7,1.3-3.4,2.3
		c-0.3,3.6-1.9,6.1-4.9,7.7C362.4,302.8,362.3,302.6,362.5,302.2z"/>
	<path id="XMLID_37_" d="M375.3,297.4c0.3,0.8,0.6,1.2,1,1.2c0.5,0,1.8-0.8,4.1-2.5c2.3-1.7,4.5-3.8,6.8-6.4c0.5-0.2,0.7,0,0.5,0.6
		c-3,3.9-6.5,7.1-10.5,9.7c0,0.2-0.1,0.3-0.1,0.4c-0.1,0.2-0.2,0.3-0.4,0.3c-0.2,0-0.5-0.3-0.9-0.8c-0.8-0.7-1.1-1.5-1.1-2.2
		C374.7,297.3,374.9,297.2,375.3,297.4z M378.4,291.1c0,0.6-0.3,0.9-0.8,0.9c-0.4,0-0.6-0.4-0.8-1.1c-0.1-0.4-0.4-0.9-0.8-1.5
		c-0.3-0.3-0.6-0.6-1.1-1c-0.3-0.4-0.2-0.6,0.3-0.6c1.2,0.4,2,0.9,2.5,1.6C378.1,290,378.4,290.6,378.4,291.1z"/>
	<path id="XMLID_40_" d="M394.6,294.7c-0.9-0.9-2-1.5-3.4-1.9c-0.9,1.2-2,2.2-3.2,3.2c-0.4,0-0.5-0.2-0.3-0.6
		c2.4-2.3,3.9-4.9,4.7-7.8c0.1-0.4-0.1-0.7-0.6-0.8c-0.2-0.2-0.2-0.4,0-0.7c0.5-0.1,1,0,1.4,0.2c0.7,0.4,1,0.7,1,1.1
		c0,0.3-0.1,0.4-0.4,0.4c-0.1,0-0.1,0.1-0.2,0.2c-0.1,0.3-0.3,0.6-0.4,0.8c1.3-0.1,2.6-0.2,3.9-0.4c0.2-0.2,0.4-0.4,0.6-0.7
		c0.3,0.1,0.7,0.3,1,0.6c0.3,0.2,0.5,0.5,0.5,0.7c0,0.2-0.1,0.4-0.4,0.5c-0.2,0-0.3,0.2-0.5,0.6c-0.5,1.3-1.2,2.6-2.1,4
		c0.5,0.4,0.8,0.8,0.7,1.4c-0.1,0.4-0.2,0.7-0.5,0.7c-0.2,0-0.5-0.3-1-0.8c-1.9,2.9-4.2,5-6.9,6.4c-0.4,0-0.5-0.2-0.4-0.6
		C391.2,299.2,393.3,297.1,394.6,294.7L394.6,294.7z M395.3,293.6c0.7-1.3,1.4-2.6,1.8-3.9c0.1-0.1,0.1-0.2,0-0.2
		c-1.4,0.1-2.7,0.2-3.8,0.3c-0.2-0.1-0.3-0.1-0.3-0.2c-0.5,1.1-1,2-1.5,2.6C393.1,292.4,394.4,292.9,395.3,293.6L395.3,293.6z"/>
	<path id="XMLID_46_" d="M412.4,287.2c0,0.4-0.2,0.6-0.5,0.6c-0.2,0-0.4-0.1-0.5-0.2c-0.2-0.2-0.4-0.5-0.5-0.8
		c-0.3-0.4-0.7-0.7-1.2-1.1c-0.2-0.4-0.1-0.6,0.2-0.6c1,0.2,1.8,0.5,2.1,1C412.2,286.4,412.4,286.8,412.4,287.2z M409.8,287.4
		c0.4,0.3,0.7,0.8,0.7,1.3c0,0.5-0.2,0.7-0.6,0.7c-0.2,0-0.6-0.4-1-1.1c-0.2-0.3-0.6-0.8-1.3-1.5c-0.1-0.2,0-0.4,0.2-0.5
		C408.4,286.5,409.1,286.9,409.8,287.4z M404.5,289.8c0,0.5-0.2,0.7-0.7,0.7c-0.2,0-0.5-0.3-0.8-0.8c-0.4-0.7-1.2-1.2-2.2-1.4
		c-0.2-0.3-0.2-0.6,0.1-0.7c1.4,0,2.4,0.4,3,1.1C404.4,289.1,404.5,289.4,404.5,289.8z M402.6,293.7c0,0.2-0.1,0.4-0.2,0.5
		c-0.1,0.1-0.3,0.2-0.5,0.2c-0.2,0-0.5-0.3-0.9-0.9c-0.5-0.6-1.2-1.1-2.1-1.4c-0.3-0.3-0.3-0.6,0.1-0.7c1.4,0,2.4,0.4,3.2,1.2
		C402.5,293,402.6,293.3,402.6,293.7z M403.9,299.7c-0.6,0.5-0.9,0.8-1,0.9c-0.1,0.3-0.3,0.4-0.5,0.4c-0.1,0-0.4-0.1-0.8-0.4
		c-0.3-0.2-0.6-0.5-0.8-0.7c-0.4-0.4-0.5-1-0.5-1.8c0-0.4,0.2-0.4,0.6-0.2c0.2,0.7,0.5,1,0.8,1c0.4,0,0.8-0.2,1.5-0.6
		c3.6-2.5,6.5-5.3,9-8.4c0.5-0.2,0.7,0,0.6,0.5C410.7,293.6,407.7,296.7,403.9,299.7L403.9,299.7z"/>
	<path id="XMLID_47_" d="M425.4,294.2c-1.9-0.1-3.6-0.1-5.1,0c-1.2,0-2.5,0.1-3.9,0.2c-0.7,0-1.1,0.1-1.2,0.2
		c-0.2,0.2-0.4,0.4-0.6,0.4c-0.1,0-0.3-0.2-0.6-0.5c-0.3-0.4-0.5-0.7-0.7-1c-0.2-0.5-0.3-1.1-0.3-1.6c0.2-0.3,0.4-0.3,0.6-0.1
		c0.2,0.7,0.4,1.1,0.6,1.2c0.2,0.1,0.6,0.2,1,0.2c1.4,0,3.1,0,5.2-0.1c2.2-0.1,3.6-0.1,4.1-0.2c0.4,0,0.7-0.1,0.7-0.2
		c0.2-0.2,0.3-0.3,0.5-0.3c0.4,0,0.8,0.2,1.2,0.6c0.3,0.4,0.5,0.6,0.5,0.7c0.1,0.4-0.1,0.6-0.6,0.6
		C426.5,294.2,425.9,294.2,425.4,294.2L425.4,294.2z"/>
</g>
</svg>
